HIERARCHY
ROOT root
{
	OFFSET 0.000000 0.000000 0.000000
	CHANNELS 6 Xposition Yposition Zposition Zrotation Yrotation Xrotation
	JOINT lhip
	{
		OFFSET 0.058581 -0.082280 -0.017664
		CHANNELS 3 Zrotation Yrotation Xrotation
		JOINT lknee
		{
			OFFSET 0.043451 -0.386469 0.008037
			CHANNELS 3 Zrotation Yrotation Xrotation
			JOINT lankle
			{
				OFFSET -0.014790 -0.426874 -0.037428
				CHANNELS 3 Zrotation Yrotation Xrotation
				JOINT ltoe
				{
					OFFSET 0.041054 -0.060286 0.122042
					CHANNELS 3 Zrotation Yrotation Xrotation
					End Site
					{
						OFFSET 0.000000 0.000000 0.000000
					}
				}
			}
		}
	}
	JOINT rhip
	{
		OFFSET -0.060310 -0.090513 -0.013543
		CHANNELS 3 Zrotation Yrotation Xrotation
		JOINT rknee
		{
			OFFSET -0.043257 -0.383688 -0.004843
			CHANNELS 3 Zrotation Yrotation Xrotation
			JOINT rankle
			{
				OFFSET 0.019056 -0.420046 -0.034562
				CHANNELS 3 Zrotation Yrotation Xrotation
				JOINT rtoe
				{
					OFFSET -0.034840 -0.062106 0.130323
					CHANNELS 3 Zrotation Yrotation Xrotation
					End Site
					{
						OFFSET 0.000000 0.000000 0.000000
					}
				}
			}
		}
	}
	JOINT lowerback
	{
		OFFSET 0.004439 0.124404 -0.038385
		CHANNELS 3 Zrotation Yrotation Xrotation
		JOINT upperback
		{
			OFFSET 0.004488 0.137956 0.026820
			CHANNELS 3 Zrotation Yrotation Xrotation
			JOINT chest
			{
				OFFSET -0.002265 0.056032 0.002855
				CHANNELS 3 Zrotation Yrotation Xrotation
				JOINT lowerneck
				{
					OFFSET -0.013390 0.211636 -0.033468
					CHANNELS 3 Zrotation Yrotation Xrotation
					JOINT upperneck
					{
						OFFSET 0.010113 0.088937 0.050410
						CHANNELS 3 Zrotation Yrotation Xrotation
						End Site
						{
							OFFSET 0.000000 0.000000 0.000000
						}
					}
				}
				JOINT lclavicle
				{
					OFFSET 0.071702 0.114000 -0.018898
					CHANNELS 3 Zrotation Yrotation Xrotation
					JOINT lshoulder
					{
						OFFSET 0.122921 0.045205 -0.019046
						CHANNELS 3 Zrotation Yrotation Xrotation
						JOINT lelbow
						{
							OFFSET 0.255332 -0.015649 -0.022946
							CHANNELS 3 Zrotation Yrotation Xrotation
							JOINT lwrist
							{
								OFFSET 0.265709 0.012698 -0.007375
								CHANNELS 3 Zrotation Yrotation Xrotation
								End Site
								{
									OFFSET 0.000000 0.000000 0.000000
								}
							}
						}
					}
				}
				JOINT rclavicle
				{
					OFFSET -0.082954 0.112472 -0.023707
					CHANNELS 3 Zrotation Yrotation Xrotation
					JOINT rshoulder
					{
						OFFSET -0.113228 0.046853 -0.008472
						CHANNELS 3 Zrotation Yrotation Xrotation
						JOINT relbow
						{
							OFFSET -0.260127 -0.014369 -0.031269
							CHANNELS 3 Zrotation Yrotation Xrotation
							JOINT rwrist
							{
								OFFSET -0.269108 0.006794 -0.006027
								CHANNELS 3 Zrotation Yrotation Xrotation
								End Site
								{
									OFFSET 0.000000 0.000000 0.000000
								}
							}
						}
					}
				}
			}
		}
	}
}
MOTION
Frames: 17
Frame Time: 0.033333
0.363758 1.999966 0.971744 2.471318 -0.744600 86.545264 -9.080139 -1.578038 10.717112 -0.690401 -18.666925 4.803294 8.324384 13.649560 -26.248846 0.000000 -0.000000 0.000000 -4.058857 -0.831809 -25.281986 -0.358568 -8.852116 6.945152 11.711404 -17.536546 -2.826584 0.000000 -0.000000 0.000000 -0.035781 -3.332305 11.960814 0.813029 -1.503683 -3.669192 2.241868 -2.073012 1.626487 -1.151718 2.229093 -10.353047 2.023804 3.992592 -6.046091 -19.466728 -8.221828 0.542877 -40.401826 -15.852102 6.423518 18.051873 -39.603195 -4.220988 5.981569 -8.248759 0.545848 19.056412 7.923404 -2.917945 43.961186 6.392687 9.508747 -21.298353 29.726295 -18.776414 1.375226 3.017386 -7.703993 
0.363173 1.976853 0.967430 2.761252 -1.072054 87.078350 -9.344736 -1.674997 11.772775 -0.766739 -18.623472 4.828246 7.711461 13.806495 -27.526267 0.000000 -0.000000 0.000000 -4.440595 -0.537738 -26.646047 -0.455642 -10.033143 4.852081 13.912314 -15.744825 -3.879156 0.000000 -0.000000 0.000000 -0.041657 -3.726440 11.999308 0.830896 -1.374323 -2.987095 2.273727 -2.019700 1.114859 -0.934758 2.623902 -10.579895 1.813063 3.046470 -6.397877 -19.589004 -8.288256 0.700020 -41.777658 -16.245339 7.317231 18.894348 -39.684764 -4.706309 6.442091 -8.377002 0.038603 19.210496 7.862926 -2.715241 45.197776 6.246824 9.696822 -21.878714 28.770326 -19.217157 0.709617 2.877864 -8.749276 
0.361634 1.952488 0.963509 3.037606 -0.946870 87.183123 -8.986615 -1.357114 13.218433 -0.977775 -19.099591 5.140427 7.532749 14.106573 -28.578088 0.000000 -0.000000 0.000000 -4.394495 0.239287 -28.127628 -0.296527 -10.086075 7.825750 13.656074 -15.889297 -3.728402 0.000000 -0.000000 0.000000 0.306950 -4.538381 13.003808 0.920077 -0.990205 -3.091890 2.317789 -2.049299 0.876411 -0.826684 2.298562 -11.131841 1.755686 2.898894 -6.152818 -20.007832 -8.294104 1.078274 -43.334728 -15.937943 7.842792 18.858439 -40.015539 -4.008408 6.886597 -8.274138 -0.690815 19.398414 8.120135 -2.336063 46.542523 5.848369 9.960357 -21.644349 27.745868 -19.053349 0.195632 2.725860 -9.395429 
0.358606 1.918775 0.960747 4.155619 -0.521435 87.342613 -7.939409 -1.059188 14.779342 -1.397546 -19.833688 6.208390 6.475311 13.827682 -29.524788 0.000000 -0.000000 0.000000 -3.996735 1.858822 -28.166568 0.129732 -8.499017 11.380063 13.019671 -14.476250 -3.015297 0.000000 -0.000000 0.000000 0.722385 -5.717929 13.713607 1.480934 -1.107985 -2.478500 2.499822 -2.285939 0.563191 -0.597042 2.130258 -12.095163 1.440791 2.504297 -5.836876 -20.801376 -8.111421 1.712310 -45.831044 -14.859040 8.783311 17.975945 -40.021600 -2.185227 6.395855 -8.285843 -0.951796 20.053096 8.269437 -2.056240 47.828902 5.297669 10.432223 -20.025511 26.303245 -17.181768 0.802533 2.591998 -9.407022 
0.356075 1.897118 0.960914 5.031775 -0.297066 87.728312 -7.214012 -1.239430 15.200362 -1.764054 -20.068320 7.368728 5.542847 13.356478 -29.506024 0.000000 -0.000000 0.000000 -3.903134 2.817461 -28.040597 0.373762 -7.194399 12.462707 12.998102 -13.339297 0.435689 0.000000 -0.000000 0.000000 0.861448 -6.094816 13.715834 2.029234 -1.417612 -2.103270 2.689950 -2.647316 0.456019 -0.354054 1.982400 -12.688268 1.073172 2.272320 -5.641702 -21.278228 -7.646016 2.190659 -47.840575 -14.045596 9.663203 16.833404 -39.637385 -0.341986 4.968276 -8.520379 -0.396444 20.687462 7.817927 -2.111416 48.530814 4.886340 10.995373 -18.815560 25.322276 -15.581790 2.607103 2.479595 -8.567091 
0.352362 1.866290 0.963951 5.520830 0.265124 88.384387 -6.112626 -1.505184 15.355170 -2.365694 -20.026057 9.574468 4.230949 12.770153 -28.670860 0.000000 -0.000000 0.000000 -3.237004 4.212671 -28.115270 0.615315 -5.115949 13.973812 10.365589 -13.861044 5.601286 0.000000 -0.000000 0.000000 1.435884 -6.599046 13.538583 2.720704 -1.417090 -1.536219 2.904462 -2.884273 0.075555 -0.297886 1.157660 -13.140343 0.872382 2.609994 -5.699226 -22.326018 -6.811409 2.907191 -50.465689 -12.557231 10.828900 13.859572 -38.320460 4.098523 3.396414 -8.767335 0.458847 21.515568 7.096692 -1.735690 49.633846 3.996444 11.691316 -17.242198 24.090287 -12.963072 5.060008 2.409060 -8.085307 
0.347822 1.832783 0.968878 5.419212 1.195362 88.375952 -4.004521 0.662688 15.416687 -2.778881 -20.722263 13.183944 2.199462 10.115955 -26.924402 0.000000 -0.000000 0.000000 -0.975727 4.083679 -27.198789 -0.702337 -5.636858 16.033406 7.526734 -11.660347 6.710211 0.000000 -0.000000 0.000000 2.408797 -7.003238 14.235889 3.442464 -1.231328 -1.237766 2.824265 -2.876025 -0.743666 0.804282 2.305754 -12.482471 -0.563881 1.408840 -6.267894 -23.194419 -5.550823 3.684024 -52.783403 -10.922080 11.617629 8.916327 -35.896857 11.902434 0.869768 -9.311450 0.953184 22.583583 5.671363 -0.778155 50.662706 3.411071 11.171530 -14.462168 22.805294 -7.914993 4.910603 3.174508 -9.116222 
0.343665 1.798409 0.974554 4.896351 1.481124 88.422761 -3.499570 0.598091 14.882935 -3.581213 -20.308931 17.711143 -0.526268 9.086529 -24.258674 0.000000 -0.000000 0.000000 0.072075 4.973316 -25.405990 -0.849342 -5.433639 16.680800 5.483931 -11.004724 6.084660 0.000000 -0.000000 0.000000 2.771375 -6.630408 14.175727 4.081638 -1.400176 -0.699762 2.824465 -2.872194 -1.030285 1.076962 2.718486 -12.574561 -0.993650 0.790665 -5.941872 -24.073971 -5.285062 4.277089 -54.560002 -8.947431 13.160433 5.016456 -32.351654 18.926483 -3.309129 -9.513870 4.548593 23.454511 5.063855 -0.390407 51.962292 2.124626 11.454659 -12.979299 20.771300 -5.400483 6.983111 2.958895 -9.894686 
0.339134 1.763470 0.979678 4.415954 1.446905 88.594339 -3.161053 0.410191 12.658200 -5.257350 -19.066660 24.363844 -3.325296 7.628925 -19.776255 0.000000 -0.000000 0.000000 1.043367 5.118424 -23.901114 -1.124473 -5.011754 17.840283 4.195849 -10.225600 3.800679 0.000000 -0.000000 0.000000 2.806854 -5.865641 13.492374 4.702362 -1.906887 -0.149493 2.689870 -3.097246 -1.149644 1.456783 3.241409 -12.455296 -1.447564 -0.021207 -5.408047 -24.761485 -4.843689 4.681784 -56.128492 -7.218418 14.501277 2.477391 -28.668782 25.953635 -6.838475 -9.025026 9.978079 24.227159 4.272684 -0.180577 53.332567 1.457280 11.464038 -11.696416 18.101818 -2.607819 8.614243 2.694666 -10.295656 
0.333833 1.721800 0.984801 4.282550 1.529383 88.321714 -2.563262 -0.343891 8.467725 -8.211238 -17.197398 34.414939 -4.893228 6.269050 -11.517830 0.000000 -0.000000 0.000000 2.168813 4.928287 -21.344203 -1.267162 -4.823572 19.063392 2.310771 -9.383845 0.557010 0.000000 -0.000000 0.000000 3.033489 -4.895660 13.195913 5.218319 -2.670266 0.026707 2.469870 -3.384409 -1.104563 1.343233 2.702315 -11.898734 -1.452384 -1.025718 -5.168023 -25.246523 -3.719004 5.010672 -57.888614 -5.250706 14.895222 1.770954 -25.597727 30.167579 -7.408386 -7.720034 13.415477 24.676027 3.301355 -0.129494 54.879082 0.704113 11.179375 -10.623813 16.024144 0.159977 8.188786 2.104485 -10.661729 
0.329404 1.690587 0.987573 4.129906 1.525755 87.735946 -2.174359 -0.962344 4.791759 -10.316365 -15.010688 42.269269 -3.633950 6.154379 -6.756605 0.000000 -0.000000 0.000000 3.023255 4.458151 -18.849818 -1.154737 -4.112642 19.631601 0.953970 -9.261315 -1.746290 0.000000 -0.000000 0.000000 2.889741 -3.898751 13.224869 5.465678 -2.975457 0.007214 2.414160 -3.425212 -0.564682 0.893666 1.264330 -11.804019 -1.240942 -2.103901 -5.168918 -25.278610 -2.603404 4.978051 -58.208618 -4.341006 14.145838 1.859761 -24.171865 29.154591 -6.687994 -7.051958 11.341344 24.964989 2.735872 -0.155051 55.131155 0.262947 11.022451 -10.275318 16.105119 0.624876 7.469698 1.885805 -10.904658 
0.324758 1.661020 0.989492 3.637519 1.346073 86.972761 -1.799911 -1.221163 1.114351 -10.742229 -11.550779 48.617089 -2.667758 7.236203 -8.747398 0.000000 -0.000000 0.000000 3.870085 3.814060 -16.096501 -1.203523 -2.966822 19.771446 0.533276 -9.332485 -3.775265 0.000000 -0.000000 0.000000 2.386811 -2.635940 13.463210 5.494050 -2.963723 -0.164748 2.401605 -3.184555 0.190563 0.594699 -0.442966 -11.859494 -1.164838 -3.645573 -5.221240 -25.059065 -1.603004 4.515472 -57.403214 -3.943448 12.912885 2.267602 -23.821989 26.225584 -6.492881 -6.739747 7.506339 25.120185 2.289828 -0.491338 54.392201 0.116170 10.950014 -10.197137 17.538757 0.147367 7.294251 1.984263 -11.375952 
0.320855 1.632868 0.991526 2.719184 0.936100 86.293422 -1.529010 -1.301691 -2.551200 -9.669123 -7.567283 52.608366 -1.365596 8.504354 -12.333632 0.000000 -0.000000 0.000000 4.344441 3.059286 -13.272901 -1.181588 -1.619149 19.374903 0.554814 -9.177799 -5.457444 0.000000 -0.000000 0.000000 1.788381 -1.247208 13.635136 5.189790 -2.773971 -0.405971 2.269855 -2.752027 0.693613 0.246744 -1.968836 -11.421349 -1.176626 -4.904457 -5.231043 -24.890588 -0.931040 3.887860 -55.717888 -3.641153 11.548098 2.935756 -24.020471 23.173315 -5.941086 -6.623373 5.472629 24.940656 2.173072 -0.811641 52.817210 0.460114 10.682572 -10.469572 19.953694 -0.536193 6.826936 2.133097 -11.272147 
0.317578 1.605739 0.993458 1.647866 0.503660 85.754909 -1.207559 -1.566439 -6.205336 -8.607265 -4.243065 54.683898 -0.106645 9.649626 -15.204596 0.000000 -0.000000 0.000000 4.548423 2.302603 -10.471559 -1.007439 -0.172690 18.590263 0.687836 -8.964413 -6.887539 0.000000 -0.000000 0.000000 1.312160 -0.003035 13.572531 4.662624 -2.620592 -0.658872 1.940604 -2.272097 1.079872 -0.236414 -3.089473 -10.759312 -1.274902 -5.866895 -5.065029 -24.670785 -0.557737 3.197409 -53.552556 -3.320115 10.315262 3.663006 -24.622660 20.640390 -4.568189 -6.720882 4.679312 24.447400 2.402452 -1.321027 50.392010 1.557369 10.171597 -11.113728 22.858722 -1.286666 5.667702 2.389061 -10.578263 
0.314653 1.579465 0.994908 0.718796 0.144131 85.281468 -0.771851 -2.046672 -9.703608 -7.980876 -1.929563 54.940397 0.681587 10.203367 -17.804164 0.000000 -0.000000 0.000000 4.576072 1.408525 -7.515989 -0.767023 1.254547 17.309371 0.908634 -8.668461 -8.055605 0.000000 -0.000000 0.000000 0.985869 1.127328 13.438041 4.058670 -2.700362 -0.955528 1.544652 -1.932083 1.389561 -0.920030 -3.859112 -10.130396 -1.563562 -6.766746 -4.750589 -24.321061 -0.437802 2.423465 -51.353767 -2.975114 9.254881 4.384715 -25.405745 18.324077 -3.345227 -7.020937 4.076177 23.764776 2.879463 -2.202858 47.022104 3.281556 9.352146 -12.318527 26.501348 -2.632874 4.186012 2.938558 -9.544874 
0.312044 1.554370 0.995689 -0.078722 -0.163738 84.823806 -0.197521 -2.618402 -12.826962 -7.548774 -0.239626 53.262172 0.761186 10.225869 -20.050736 0.000000 -0.000000 0.000000 4.423728 0.518300 -4.502748 -0.483205 2.600395 15.780371 1.227539 -8.334902 -9.063388 0.000000 -0.000000 0.000000 0.741840 2.136426 13.470692 3.415774 -2.941533 -1.280754 1.177543 -1.683160 1.516175 -1.742134 -4.377581 -9.588181 -2.139039 -7.488658 -4.419153 -23.868979 -0.608265 1.603871 -49.388847 -2.577576 8.389169 5.086762 -26.104107 16.497884 -2.256763 -7.608357 3.739714 22.683660 3.627003 -3.307877 43.143903 5.495829 8.153070 -14.587122 30.967904 -4.909167 2.518933 3.767977 -8.440414 
0.309650 1.530130 0.995722 -0.858952 -0.424426 84.465204 0.489680 -2.939132 -15.518634 -7.297695 0.860490 49.858087 0.706401 10.173637 -21.491358 0.000000 -0.000000 0.000000 4.121280 -0.427554 -1.733857 -0.175742 3.888674 14.430189 1.562348 -7.840529 -10.056761 0.000000 -0.000000 0.000000 0.583082 3.030355 13.516418 2.722304 -3.188037 -1.614499 0.804405 -1.453269 1.591136 -2.578256 -4.733229 -9.289365 -2.888590 -8.044391 -4.044315 -23.211673 -0.990064 0.762908 -47.794637 -2.213278 7.679665 5.682912 -26.764947 15.231838 -1.131386 -8.246562 3.411246 20.991220 4.497447 -4.564909 39.231495 8.120208 6.574084 -18.120638 35.928952 -8.163650 0.311983 4.675087 -7.367403 
